<?xml version="1.0" encoding="utf-8"?>
<!-- Generator: Adobe Illustrator 19.0.0, SVG Export Plug-In . SVG Version: 6.00 Build 0)  -->
<svg version="1.1" xmlns="http://www.w3.org/2000/svg" xmlns:xlink="http://www.w3.org/1999/xlink" x="0px" y="0px"
	 viewBox="0 0 240 40" style="enable-background:new 0 0 240 40;" xml:space="preserve">
<style type="text/css">
	.st0{fill:#F47D20;}
	.st1{display:none;}
	.st2{fill:#BC8A8A;}
	.st3{display:inline;fill:#F47C20;}
	.st4{fill:#FFFFFF;}
	.st5{fill:#24425F;}
	.st6{font-family:'GeosansLight';}
	.st7{font-size:24.0453px;}
	.st8{fill:#EDEDED;}
	.st9{font-family:'CaviarDreams';}
	.st10{font-size:17.2181px;}
	.st11{font-size:15.7832px;}
</style>
<g id="Layer_3">
	<path id="XMLID_423_" class="st0" d="M224.8,32.8H95c-3.8,0-7-3.1-7-7V17c0-3.9,3.2-7,7-7h129.8c3.9,0,7,3.1,7,7v8.8
		C231.8,29.6,228.6,32.8,224.8,32.8z"/>
</g>
<g id="Layer_1">
	<g id="Outreach_1_" class="st1">
		<rect id="XMLID_464_" x="13.2" y="39.3" class="st2" width="138" height="43.9"/>
		<path id="XMLID_465_" class="st3" d="M148.3,10l-97,0c-3.5,0-6.3,2.8-6.3,6.3l0,9.9c0,3.5,2.8,6.3,6.3,6.3l97,0c0,0,0,0,0,0
			l6.3,5.9V16.2C154.6,12.8,151.8,10,148.3,10z"/>
		<path id="XMLID_466_" class="st4" d="M58.9,15.7c0.8,0.3,1.5,0.8,2.1,1.4c0.6,0.6,1.1,1.3,1.4,2.2c0.3,0.8,0.5,1.7,0.5,2.7
			c0,1-0.2,1.9-0.5,2.7c-0.3,0.8-0.8,1.5-1.4,2.1c-0.6,0.6-1.3,1.1-2.1,1.4c-0.8,0.3-1.6,0.5-2.5,0.5s-1.7-0.2-2.5-0.5
			c-0.8-0.3-1.5-0.8-2.1-1.4c-0.6-0.6-1-1.3-1.4-2.1c-0.3-0.8-0.5-1.7-0.5-2.7c0-1,0.2-1.9,0.5-2.7c0.3-0.8,0.8-1.5,1.4-2.2
			c0.6-0.6,1.3-1.1,2.1-1.4c0.8-0.3,1.6-0.5,2.5-0.5S58.1,15.3,58.9,15.7z M57.6,25.4c0.4-0.2,0.7-0.4,1-0.8
			c0.3-0.3,0.5-0.7,0.7-1.2c0.2-0.5,0.3-1,0.3-1.5s-0.1-1.1-0.3-1.5c-0.2-0.5-0.4-0.9-0.7-1.2c-0.3-0.3-0.6-0.6-1-0.8
			c-0.4-0.2-0.8-0.3-1.2-0.3c-0.4,0-0.8,0.1-1.2,0.3c-0.4,0.2-0.7,0.4-1,0.8c-0.3,0.3-0.5,0.7-0.7,1.2c-0.2,0.5-0.3,1-0.3,1.5
			s0.1,1.1,0.3,1.5c0.2,0.5,0.4,0.8,0.7,1.2c0.3,0.3,0.6,0.6,1,0.8c0.4,0.2,0.8,0.3,1.2,0.3C56.8,25.6,57.2,25.5,57.6,25.4z
			 M75.7,25.2c-0.3,0.7-0.7,1.3-1.2,1.8c-0.5,0.5-1.1,0.9-1.8,1.2c-0.7,0.3-1.5,0.4-2.4,0.4c-0.9,0-1.7-0.1-2.4-0.4
			c-0.7-0.3-1.3-0.7-1.8-1.2c-0.5-0.5-0.9-1.1-1.1-1.8c-0.3-0.7-0.4-1.5-0.4-2.3v-7.4h3.3V23c0,0.2,0,0.4,0.1,0.7
			c0.1,0.3,0.2,0.5,0.3,0.8c0.2,0.3,0.4,0.5,0.7,0.7c0.3,0.2,0.8,0.3,1.3,0.3c0.7,0,1.3-0.2,1.8-0.7c0.5-0.5,0.7-1,0.7-1.8v-7.5h3.3
			v7.4C76.2,23.7,76,24.5,75.7,25.2z M84.3,28.3c-1,0.1-1.8,0-2.5-0.2c-0.7-0.2-1.3-0.6-1.8-1.1c-0.5-0.5-0.9-1.1-1.1-1.8
			c-0.3-0.7-0.4-1.5-0.4-2.4V12.4h3.3v3.1h2.3v2.9h-2.3V23c0,0.9,0.2,1.5,0.6,1.9c0.4,0.4,1,0.5,1.9,0.5V28.3z M93.8,18.4
			c-0.7-0.1-1.3-0.1-1.8,0c-0.5,0.1-1,0.4-1.4,0.8c-0.4,0.4-0.6,0.8-0.7,1.3c-0.1,0.5-0.2,1-0.2,1.5v6.3h-3.3V15.5h3.2v1.3
			c0.5-0.7,1.2-1.1,1.9-1.4c0.7-0.3,1.5-0.3,2.3-0.2V18.4z M97.6,23.2c0.2,0.8,0.6,1.4,1.2,1.9c0.6,0.5,1.3,0.7,2,0.7
			c0.6,0,1.1-0.1,1.6-0.4c0.5-0.2,0.9-0.6,1.2-1.1h3.5c-0.4,1.3-1.1,2.4-2.2,3.2c-1.1,0.8-2.4,1.2-4,1.2c-0.9,0-1.8-0.2-2.6-0.5
			c-0.8-0.4-1.5-0.8-2.1-1.4c-0.6-0.6-1.1-1.3-1.4-2.1c-0.4-0.8-0.5-1.7-0.5-2.6c0-0.9,0.2-1.8,0.5-2.6c0.4-0.8,0.8-1.5,1.4-2.2
			c0.6-0.6,1.3-1.1,2.1-1.5c0.8-0.4,1.7-0.5,2.6-0.5c1,0,1.8,0.2,2.7,0.5c0.8,0.4,1.6,0.9,2.2,1.6c0.6,0.7,1.1,1.5,1.4,2.5
			c0.3,1,0.4,2.1,0.3,3.4H97.6z M104.1,20.5c-0.2-0.8-0.6-1.3-1.2-1.8c-0.6-0.4-1.3-0.7-2.1-0.7c-0.8,0-1.4,0.2-2,0.7
			c-0.6,0.4-1,1-1.2,1.8H104.1z M121.8,28.4h-3.2V27c-0.5,0.5-1.1,0.9-1.8,1.2c-0.7,0.3-1.4,0.4-2.2,0.4c-0.8,0-1.6-0.2-2.4-0.5
			c-0.7-0.3-1.4-0.8-2-1.4c-0.6-0.6-1-1.3-1.3-2.1c-0.3-0.8-0.5-1.7-0.5-2.7c0-1,0.2-1.8,0.5-2.7c0.3-0.8,0.8-1.5,1.3-2.1
			c0.6-0.6,1.2-1.1,2-1.4c0.7-0.3,1.5-0.5,2.4-0.5c0.8,0,1.5,0.1,2.2,0.4c0.7,0.3,1.3,0.7,1.8,1.2v-1.4h3.2V28.4z M118.2,20.5
			c-0.2-0.5-0.4-0.8-0.7-1.2c-0.3-0.3-0.7-0.6-1.1-0.8c-0.4-0.2-0.8-0.3-1.3-0.3c-0.5,0-0.9,0.1-1.3,0.3c-0.4,0.2-0.8,0.5-1.1,0.8
			c-0.3,0.3-0.5,0.7-0.7,1.2c-0.2,0.5-0.3,0.9-0.3,1.5c0,0.5,0.1,1,0.3,1.4c0.2,0.4,0.4,0.8,0.7,1.2c0.3,0.3,0.7,0.6,1.1,0.8
			c0.4,0.2,0.8,0.3,1.3,0.3c0.5,0,0.9-0.1,1.3-0.3c0.4-0.2,0.8-0.5,1.1-0.8c0.3-0.3,0.5-0.7,0.7-1.2c0.2-0.4,0.3-0.9,0.3-1.4
			C118.5,21.4,118.4,21,118.2,20.5z M134.3,27.4c-1.1,0.8-2.4,1.2-4,1.2c-1,0-1.9-0.2-2.7-0.5c-0.8-0.4-1.5-0.8-2.1-1.4
			c-0.6-0.6-1-1.3-1.4-2.1c-0.3-0.8-0.5-1.7-0.5-2.6c0-0.9,0.2-1.8,0.5-2.6c0.3-0.8,0.8-1.5,1.4-2.2c0.6-0.6,1.3-1.1,2.1-1.5
			c0.8-0.4,1.7-0.5,2.7-0.5c1.6,0,2.9,0.4,4,1.2c1.1,0.8,1.8,2,2.2,3.4h-3.5c-0.2-0.4-0.6-0.8-1.1-1.1c-0.5-0.3-1-0.5-1.6-0.5
			c-0.5,0-0.9,0.1-1.3,0.3c-0.4,0.2-0.8,0.5-1.1,0.8c-0.3,0.3-0.5,0.7-0.7,1.2c-0.2,0.5-0.3,0.9-0.3,1.5c0,0.5,0.1,1,0.3,1.4
			c0.2,0.5,0.4,0.8,0.7,1.2c0.3,0.3,0.7,0.6,1.1,0.8c0.4,0.2,0.8,0.3,1.3,0.3c0.6,0,1.2-0.2,1.7-0.5c0.5-0.3,0.8-0.7,1.1-1.2h3.5
			C136.1,25.5,135.4,26.6,134.3,27.4z M149.7,28.4h-3.3v-7.5c0-0.2,0-0.4-0.1-0.7c0-0.3-0.2-0.6-0.3-0.8c-0.2-0.3-0.4-0.5-0.7-0.7
			c-0.3-0.2-0.7-0.3-1.3-0.3c-0.8,0-1.4,0.2-1.8,0.7c-0.5,0.5-0.7,1-0.7,1.8v7.5h-3.3v-16h3.3v3.8c0.4-0.3,0.9-0.6,1.4-0.7
			c0.5-0.2,1-0.3,1.6-0.3c0.8,0,1.5,0.1,2.2,0.4c0.7,0.3,1.2,0.7,1.7,1.2c0.5,0.5,0.8,1.1,1.1,1.8c0.3,0.7,0.4,1.5,0.4,2.3V28.4z"/>
	</g>
	<g id="Layer_2">
		<text id="XMLID_424_" transform="matrix(1 0 0 1 8.0005 27.6064)" class="st5 st6 st7">manage</text>
		<text id="XMLID_422_" transform="matrix(1 0 0 1 95.251 28.2607)"><tspan x="0" y="0" class="st8 st9 st10">B A</tspan><tspan x="25.8" y="0" class="st8 st9 st11"> </tspan><tspan x="31.2" y="0" class="st8 st9 st10">C K L I N K</tspan><tspan x="115.5" y="0" class="st8 st9 st11"> </tspan><tspan x="120.9" y="0" class="st8 st9 st10">S</tspan></text>
	</g>
</g>
</svg>
